<svg width="68" height="68" viewBox="0 0 68 68" fill="none"
    xmlns="http://www.w3.org/2000/svg">
    <path d="M41.3405 36.1509C45.3946 32.0967 45.3945 25.5235 41.3402 21.4694C37.286 17.4153 30.7128 17.4154 26.6587 21.4697C22.6046 25.5239 22.6047 32.0971 26.659 36.1512C30.7132 40.2053 37.2864 40.2052 41.3405 36.1509Z" stroke="#F37423" strokeWidth="3" stroke-miterlimit="10" strokeLinecap="round" strokeLinejoin="round"/>
    <path d="M53.4453 57.8496C50.4923 49.981 42.9002 44.3809 34.0001 44.3809C25.0999 44.3809 17.5077 49.9809 14.5547 57.8496" stroke="#F37423" strokeWidth="3" stroke-miterlimit="10"/>
    <path d="M34 64.625C50.9137 64.625 64.625 50.9137 64.625 34C64.625 17.0863 50.9137 3.375 34 3.375C17.0863 3.375 3.375 17.0863 3.375 34C3.375 50.9137 17.0863 64.625 34 64.625Z" stroke="#F37423" strokeWidth="3" stroke-miterlimit="10" strokeLinecap="round" strokeLinejoin="round"/>
    <path d="M56 63C61.5 63 66 58.5 66 53C66 47.5 61.5 43 56 43C50.5 43 46 47.5 46 53C46 58.5 50.5 63 56 63Z" fill="#F37423"/>
    <path d="M52 53L54.9965 56L61 50" stroke="white" strokeWidth="2" strokeLinecap="round" strokeLinejoin="round"/>
</svg>
