<svg width="20" height="20" viewBox="0 0 20 20" fill="none"
    xmlns="http://www.w3.org/2000/svg">
    <g clipPath="url(#clip0_835_1450)">
        <path d="M10.0001 6.36328C7.99102 6.36328 6.36377 7.99057 6.36377 9.99963C6.36377 12.0087 7.99102 13.636 10.0001 13.636C12.0092 13.636 13.6365 12.0087 13.6365 9.99968C13.6365 7.99061 12.0092 6.36328 10.0001 6.36328Z" fill="white"/>
        <path d="M18.1273 9.0909C17.7091 5.29999 14.7 2.29091 10.9091 1.87274V0H9.0909V1.87274C5.29999 2.29091 2.29091 5.29999 1.87274 9.0909H0V10.9091H1.87274C2.29091 14.7 5.30003 17.7091 9.09094 18.1273V20H10.9091V18.1273C14.7 17.7091 17.7091 14.7 18.1273 10.9091H20V9.0909H18.1273ZM10 16.3636C6.4864 16.3636 3.63639 13.5136 3.63639 10C3.63639 6.4864 6.4864 3.63639 10 3.63639C13.5136 3.63639 16.3636 6.48635 16.3636 10C16.3636 13.5137 13.5136 16.3636 10 16.3636Z" fill="white"/>
    </g>
    <defs>
        <clipPath id="clip0_835_1450">
            <rect width="20" height="20" fill="white"/>
        </clipPath>
    </defs>
</svg>
