<svg width="18" height="18" viewBox="0 0 18 18" fill="none"
    xmlns="http://www.w3.org/2000/svg">
    <g clipPath="url(#clip0_443_1238)">
        <path d="M9.64384 3.41503C9.60561 3.37674 9.56021 3.34636 9.51023 3.32563C9.46025 3.3049 9.40667 3.29423 9.35256 3.29423C9.29845 3.29423 9.24488 3.3049 9.1949 3.32563C9.14492 3.34636 9.09951 3.37674 9.06129 3.41503L7.41428 5.06201C7.37598 5.10023 7.3456 5.14563 7.32487 5.19561C7.30414 5.24559 7.29347 5.29917 7.29347 5.35327C7.29347 5.40738 7.30414 5.46096 7.32487 5.51094C7.3456 5.56092 7.37598 5.60632 7.41428 5.64454L7.9461 6.17635L2.13124 11.9919C1.93968 12.1827 1.78783 12.4096 1.68447 12.6594C1.58111 12.9092 1.52829 13.177 1.52905 13.4474C1.52905 13.9964 1.36787 14.5282 1.06268 14.9856L0.138132 16.3732C-0.0795059 16.7004 -0.036142 17.1349 0.241224 17.4123L0.587317 17.7583C0.721786 17.8932 0.898893 17.9772 1.0884 17.996C1.27791 18.0148 1.46807 17.9672 1.62642 17.8614L3.08606 16.8878C3.49516 16.6154 3.97216 16.4705 4.46553 16.4705C5.03171 16.4705 5.57581 16.2365 5.95954 15.8283C6.99536 14.7278 10.1732 11.6229 11.8079 10.0381L12.3561 10.5855C12.3943 10.6237 12.4396 10.6541 12.4895 10.6748C12.5394 10.6955 12.593 10.7062 12.647 10.7062C12.701 10.7062 12.7545 10.6955 12.8045 10.6748C12.8544 10.6541 12.8997 10.6237 12.9379 10.5855L14.5849 8.93849C14.6232 8.90026 14.6536 8.85486 14.6743 8.80488C14.695 8.7549 14.7057 8.70133 14.7057 8.64722C14.7057 8.59311 14.695 8.53953 14.6743 8.48955C14.6536 8.43958 14.6232 8.39417 14.5849 8.35595L9.64384 3.41503ZM4.75926 14.7C4.72111 14.7393 4.67544 14.7705 4.62497 14.7917C4.5745 14.8129 4.52028 14.8238 4.46553 14.8236C3.89852 14.8236 3.34461 14.9381 2.83161 15.1598C3.05824 14.6207 3.17525 14.0398 3.17525 13.4474C3.17525 13.3361 3.21779 13.2347 3.29634 13.1561L9.1112 7.34142L10.6437 8.87303C9.12592 10.3441 5.86708 13.5227 4.75926 14.7ZM14.9874 0C14.1823 0 13.4255 0.313358 12.8569 0.882803L10.8908 2.84886C10.8141 2.92558 10.771 3.02961 10.771 3.13808C10.771 3.24656 10.8141 3.35059 10.8908 3.42731L14.5726 7.10906C14.6105 7.14723 14.6555 7.17753 14.7052 7.1982C14.7548 7.21887 14.8081 7.22952 14.8618 7.22952C14.9156 7.22952 14.9688 7.21887 15.0185 7.1982C15.0681 7.17753 15.1132 7.14723 15.1511 7.10906L17.1172 5.143C17.3979 4.86389 17.6204 4.53187 17.772 4.16617C17.9235 3.80047 18.001 3.40835 18 3.01249C17.9991 2.2138 17.6814 1.44806 17.1167 0.883296C16.5519 0.318531 15.7861 0.000866267 14.9874 0Z" fill="#303C42"/>
    </g>
    <defs>
        <clipPath id="clip0_443_1238">
            <rect width="18" height="18" fill="white"/>
        </clipPath>
    </defs>
</svg>
