<svg width="18" height="18" viewBox="0 0 18 18" fill="none"
    xmlns="http://www.w3.org/2000/svg">
    <g clipPath="url(#clip0_116_581)">
        <path d="M15.244 0.651924H2.75637C2.35238 0.651289 1.9567 0.764168 1.61634 0.977148C1.27598 1.19013 1.00526 1.49425 0.836345 1.85338C0.667431 2.21251 0.607427 2.61155 0.663463 3.00307C0.719498 3.3946 0.889218 3.76215 1.15245 4.06205L6.08833 9.69576C6.26972 9.91065 6.37474 10.1816 6.37474 10.4525V15.7219C6.37474 16.2918 6.6707 16.815 7.16716 17.114C7.43448 17.2728 7.73999 17.3569 8.04549 17.3569C8.30327 17.3569 8.55149 17.3008 8.79017 17.1794L10.6996 16.2451C11.2724 15.9648 11.6257 15.4042 11.6257 14.7783V10.4432C11.6257 10.1629 11.7307 9.89196 11.9121 9.68642L16.848 4.05271C17.1112 3.75281 17.2809 3.38526 17.337 2.99373C17.393 2.60221 17.333 2.20317 17.1641 1.84404C16.9952 1.48491 16.7244 1.18078 16.3841 0.967805C16.0437 0.754825 15.648 0.641946 15.244 0.642581V0.651924ZM15.7596 3.14645L10.8237 8.78017C10.4132 9.24731 10.1936 9.8359 10.1936 10.4525V14.7876C10.1936 14.881 10.1459 14.9558 10.0599 14.9931L8.15051 15.9274C8.04549 15.9835 7.95957 15.9461 7.92138 15.9181C7.88319 15.89 7.80682 15.834 7.80682 15.7219V10.4525C7.80682 9.8359 7.58723 9.24731 7.1767 8.78017L2.24083 3.14645C2.13606 3.02674 2.0785 2.8743 2.07853 2.71668C2.07853 2.35231 2.38404 2.05334 2.75637 2.05334H15.244C15.6164 2.05334 15.9219 2.35231 15.9219 2.71668C15.9219 2.87551 15.8646 3.025 15.7596 3.14645Z" fill="#6F767E" stroke="#6F767E" strokeWidth="0.385714"/>
    </g>
    <defs>
        <clipPath id="clip0_116_581">
            <rect width="18" height="18" fill="white"/>
        </clipPath>
    </defs>
</svg>
