<svg width="18" height="18" viewBox="0 0 18 18" fill="none"
    xmlns="http://www.w3.org/2000/svg">
    <g clipPath="url(#clip0_575_2089)">
        <path d="M13.6667 1H4.33333C3.4496 1.00106 2.60237 1.35259 1.97748 1.97748C1.35259 2.60237 1.00106 3.4496 1 4.33333L1 13.6667C1.00106 14.5504 1.35259 15.3976 1.97748 16.0225C2.60237 16.6474 3.4496 16.9989 4.33333 17H13.6667C14.5504 16.9989 15.3976 16.6474 16.0225 16.0225C16.6474 15.3976 16.9989 14.5504 17 13.6667V4.33333C16.9989 3.4496 16.6474 2.60237 16.0225 1.97748C15.3976 1.35259 14.5504 1.00106 13.6667 1ZM4.33333 2.33333H13.6667C14.1971 2.33333 14.7058 2.54405 15.0809 2.91912C15.456 3.29419 15.6667 3.8029 15.6667 4.33333V13.6667C15.6655 13.9637 15.5971 14.2565 15.4667 14.5233L9.358 8.41467C9.04846 8.10504 8.68096 7.85944 8.27648 7.69186C7.87201 7.52429 7.43848 7.43805 7.00067 7.43805C6.56285 7.43805 6.12933 7.52429 5.72485 7.69186C5.32038 7.85944 4.95287 8.10504 4.64333 8.41467L2.33333 10.724V4.33333C2.33333 3.8029 2.54405 3.29419 2.91912 2.91912C3.29419 2.54405 3.8029 2.33333 4.33333 2.33333ZM4.33333 15.6667C3.8029 15.6667 3.29419 15.456 2.91912 15.0809C2.54405 14.7058 2.33333 14.1971 2.33333 13.6667V12.6093L5.58533 9.35733C5.77107 9.17148 5.9916 9.02405 6.23434 8.92346C6.47707 8.82287 6.73725 8.77109 7 8.77109C7.26275 8.77109 7.52293 8.82287 7.76566 8.92346C8.0084 9.02405 8.22893 9.17148 8.41467 9.35733L14.5233 15.4667C14.2565 15.5971 13.9637 15.6655 13.6667 15.6667H4.33333Z" fill="#2B2669" stroke="#2B2669" strokeWidth="0.2"/>
        <path d="M12 8C12.3956 8 12.7822 7.8827 13.1111 7.66294C13.44 7.44318 13.6964 7.13082 13.8478 6.76537C13.9991 6.39991 14.0387 5.99778 13.9616 5.60982C13.8844 5.22186 13.6939 4.86549 13.4142 4.58579C13.1345 4.30608 12.7781 4.1156 12.3902 4.03843C12.0022 3.96126 11.6001 4.00087 11.2346 4.15224C10.8692 4.30362 10.5568 4.55996 10.3371 4.88886C10.1173 5.21776 10 5.60444 10 6C10 6.53043 10.2107 7.03914 10.5858 7.41421C10.9609 7.78929 11.4696 8 12 8ZM12 5.14286C12.1695 5.14286 12.3352 5.19313 12.4762 5.28731C12.6172 5.3815 12.727 5.51536 12.7919 5.67199C12.8568 5.82861 12.8737 6.00095 12.8407 6.16722C12.8076 6.33349 12.726 6.48622 12.6061 6.60609C12.4862 6.72597 12.3335 6.8076 12.1672 6.84067C12.001 6.87375 11.8286 6.85677 11.672 6.7919C11.5154 6.72702 11.3815 6.61716 11.2873 6.4762C11.1931 6.33525 11.1429 6.16953 11.1429 6C11.1429 5.77267 11.2332 5.55465 11.3939 5.39391C11.5547 5.23316 11.7727 5.14286 12 5.14286Z" fill="#2B2669" stroke="#2B2669" strokeWidth="0.2"/>
    </g>
    <defs>
        <clipPath id="clip0_575_2089">
            <rect width="18" height="18" fill="white"/>
        </clipPath>
    </defs>
</svg>
