<svg width="24" height="24" viewBox="0 0 24 24" fill="none"
    xmlns="http://www.w3.org/2000/svg">
    <path d="M12.0003 22.9176C11.1098 22.9164 10.256 22.5622 9.62624 21.9324C8.9965 21.3027 8.64222 20.4489 8.64111 19.5583C8.64111 19.3356 8.72959 19.122 8.88709 18.9645C9.04458 18.807 9.25819 18.7185 9.48092 18.7185H14.5198C14.7425 18.7185 14.9561 18.807 15.1136 18.9645C15.2711 19.122 15.3596 19.3356 15.3596 19.5583C15.3585 20.4489 15.0042 21.3027 14.3745 21.9324C13.7447 22.5622 12.8909 22.9164 12.0003 22.9176ZM10.5466 20.3981C10.694 20.6533 10.9059 20.8651 11.1611 21.0124C11.4163 21.1597 11.7057 21.2372 12.0003 21.2372C12.295 21.2372 12.5844 21.1597 12.8396 21.0124C13.0948 20.8651 13.3067 20.6533 13.4541 20.3981H10.5466Z" fill="#6F767E"/>
    <path d="M18.0092 20.3981H5.99155C5.31781 20.3984 4.66372 20.1711 4.13532 19.7531C3.60693 19.3351 3.23521 18.7509 3.08044 18.0952C2.92567 17.4394 2.99693 16.7507 3.28265 16.1405C3.56837 15.5303 4.05181 15.0346 4.65458 14.7336L4.73184 14.695L5.22901 9.73001C5.39749 8.05108 6.18366 6.4946 7.43495 5.36259C8.68625 4.23058 10.3134 3.60376 12.0008 3.60376C13.6882 3.60376 15.3154 4.23058 16.5667 5.36259C17.818 6.4946 18.6041 8.05108 18.7726 9.73001L19.2681 14.695L19.3462 14.7336C19.949 15.0346 20.4324 15.5303 20.7181 16.1405C21.0039 16.7507 21.0751 17.4394 20.9203 18.0952C20.7656 18.7509 20.3939 19.3351 19.8655 19.7531C19.3371 20.1711 18.683 20.3984 18.0092 20.3981ZM12.0004 5.28154C10.7283 5.27808 9.50066 5.74919 8.55747 6.60276C7.61428 7.45634 7.02336 8.63102 6.90023 9.89713L6.3871 15.0267C6.36454 15.2586 6.28332 15.481 6.15109 15.6729C6.01886 15.8647 5.83998 16.0198 5.63128 16.1235L5.40537 16.236C5.14106 16.3678 4.92905 16.5851 4.80374 16.8526C4.67843 17.12 4.64718 17.422 4.71506 17.7095C4.78294 17.9969 4.94596 18.253 5.17767 18.4362C5.40938 18.6193 5.69619 18.7188 5.99155 18.7185H18.0092C18.3046 18.7188 18.5914 18.6193 18.8231 18.4362C19.0548 18.253 19.2178 17.9969 19.2857 17.7095C19.3536 17.422 19.3223 17.12 19.197 16.8526C19.0717 16.5851 18.8597 16.3678 18.5954 16.236L18.3695 16.1235C18.1608 16.0198 17.9819 15.8647 17.8497 15.6729C17.7175 15.481 17.6362 15.2586 17.6137 15.0267L17.1014 9.89713C16.9782 8.63087 16.3872 7.45608 15.4438 6.60248C14.5005 5.74888 13.2726 5.27787 12.0004 5.28154Z" fill="#6F767E"/>
    <path d="M13.68 5.52511C13.4573 5.52511 13.2437 5.43663 13.0862 5.27913C12.9287 5.12164 12.8402 4.90803 12.8402 4.6853V3.60195C12.8411 3.49353 12.8202 3.38603 12.7787 3.28589C12.7371 3.18574 12.6758 3.09501 12.5983 3.01912C12.5215 2.93769 12.4288 2.87287 12.326 2.82867C12.2231 2.78447 12.1123 2.76182 12.0004 2.76214C11.7777 2.76236 11.5642 2.85091 11.4068 3.00836C11.2493 3.1658 11.1608 3.37928 11.1606 3.60195V4.6853C11.1606 4.90803 11.0721 5.12164 10.9146 5.27913C10.7571 5.43663 10.5435 5.52511 10.3208 5.52511C10.098 5.52511 9.88443 5.43663 9.72693 5.27913C9.56944 5.12164 9.48096 4.90803 9.48096 4.6853V3.60195C9.48162 2.93396 9.74728 2.29352 10.2196 1.82118C10.692 1.34884 11.3324 1.08319 12.0004 1.08252C12.6676 1.08561 13.3067 1.35204 13.7785 1.82386C14.2503 2.29567 14.5167 2.93471 14.5198 3.60195V4.6853C14.5198 4.90803 14.4313 5.12164 14.2738 5.27913C14.1163 5.43663 13.9027 5.52511 13.68 5.52511Z" fill="#6F767E"/>
</svg>
