<svg width="20" height="18" viewBox="0 0 20 18" fill="none" xmlns="http://www.w3.org/2000/svg">
<path d="M19.576 8.19528C19.3789 7.93277 19.1214 7.71964 18.8246 7.5732C18.5278 7.42676 18.2 7.35115 17.8678 7.35252H17.4987V5.72672C17.4987 3.47089 15.6297 1.63562 13.3323 1.63562H9.11932C8.991 1.63562 8.86101 1.60535 8.74685 1.54971L6.11788 0.258557C5.77047 0.0887188 5.38771 0.00021943 4.99963 0H3.33309C2.44944 0.000649839 1.60217 0.345566 0.977263 0.959032C0.352356 1.5725 0.000882732 2.40438 0 3.27206L0 13.9089C0 16.1647 1.86903 18 4.16636 18H14.6306C16.4854 18 18.0887 16.8283 18.6319 15.0487L19.9085 10.0445C20.0052 9.73234 20.0256 9.40222 19.968 9.08091C19.9104 8.75961 19.7755 8.45618 19.576 8.19528ZM1.66654 13.9089V3.27206C1.66654 2.36956 2.41399 1.63562 3.33309 1.63562H4.99963C5.12795 1.63562 5.25794 1.66589 5.3721 1.72153L8.00107 3.01268C8.34605 3.18205 8.73268 3.27124 9.11932 3.27124H13.3323C14.7106 3.27124 15.8322 4.37256 15.8322 5.7259V7.3517H7.17863C6.48188 7.35364 5.80314 7.56915 5.23713 7.96813C4.67112 8.36711 4.24609 8.92965 4.02137 9.57725L2.1965 15.4177C1.8527 14.987 1.66608 14.4562 1.66654 13.9089ZM18.302 9.6108L17.0254 14.6142C16.8731 15.1212 16.5572 15.5658 16.1253 15.8813C15.6934 16.1968 15.1689 16.366 14.6306 16.3636H4.16636C3.99304 16.3636 3.82388 16.3464 3.66056 16.3128L5.60542 10.087C5.71935 9.76625 5.93208 9.48823 6.21411 9.29149C6.49614 9.09475 6.83351 8.98902 7.17947 8.98895H17.8687C18.0703 8.98895 18.1878 9.10351 18.2395 9.17224C18.2911 9.24097 18.3695 9.38415 18.302 9.6108Z" fill="#6F767E"/>
</svg>
