<svg width="24" height="24" viewBox="0 0 24 24" fill="none"
    xmlns="http://www.w3.org/2000/svg">
    <path d="M9.37006 2.37012H6.74508C4.33273 2.37012 2.37012 4.33266 2.37012 6.74493V9.36982C2.37012 10.3349 3.15499 11.1197 4.1201 11.1197H9.37006C10.3352 11.1197 11.12 10.3349 11.12 9.36982V4.12004C11.12 3.15496 10.3352 2.37012 9.37006 2.37012ZM14.62 11.1197H19.87C20.8351 11.1197 21.62 10.3349 21.62 9.36982V6.74493C21.62 4.33266 19.6573 2.37012 17.245 2.37012H14.62C13.6549 2.37012 12.87 3.15496 12.87 4.12004V9.36982C12.87 10.3349 13.6549 11.1197 14.62 11.1197ZM9.37006 12.8697H4.1201C3.15499 12.8697 2.37012 13.6545 2.37012 14.6196V17.2445C2.37012 19.6567 4.33273 21.6193 6.74508 21.6193H9.37006C10.3352 21.6193 11.12 20.8344 11.12 19.8694V14.6196C11.12 13.6545 10.3352 12.8697 9.37006 12.8697Z" fill="#F37423" stroke="#F37423" strokeWidth="0.2"/>
    <path d="M14.6201 12.87H19.8701C20.8352 12.87 21.62 13.6548 21.62 14.6199V17.2448C21.62 19.6571 19.6574 21.6196 17.2451 21.6196H14.6201C13.655 21.6196 12.8701 20.8348 12.8701 19.8697V14.6199C12.8701 13.6548 13.655 12.87 14.6201 12.87Z" fill="#F37423" stroke="#F37423" strokeWidth="0.2"/>
</svg>
